<?xml version="1.0" encoding="utf-8"?>
<!-- Generator: Adobe Illustrator 18.1.1, SVG Export Plug-In . SVG Version: 6.00 Build 0)  -->
<!DOCTYPE svg PUBLIC "-//W3C//DTD SVG 1.1//EN" "http://www.w3.org/Graphics/SVG/1.1/DTD/svg11.dtd">
<svg version="1.1" id="Livello_1" xmlns="http://www.w3.org/2000/svg" xmlns:xlink="http://www.w3.org/1999/xlink" x="0px" y="0px"
	 viewBox="0 0 192.2 74.3" enable-background="new 0 0 192.2 74.3" xml:space="preserve">
<g>
	<path fill="#FFFFFF" d="M61.5,24.3c2.5,0,4.7,0,7.1,0c0,0.6,0,1.2,0,1.7c0,11.3,0,22.7,0,34c0,7.4-3.6,12-10.8,13.6
		c-5.4,1.2-10.6,0.6-15.4-2.4c-0.5-0.3-0.9-0.7-1.6-1.2c1.4-1.8,2.8-3.6,4.2-5.5c3.3,2.5,7.1,2.9,10.9,2.1c1.3-0.3,2.6-1.1,3.8-1.9
		c1.3-0.9,1.9-2.3,1.8-4c-0.1-1.1,0-2.3,0-3.5c-0.2,0-0.3,0-0.4,0c-8.5,5.9-20,2.3-23.6-7.4c-0.7-2-1.3-4.1-1.4-6.2
		C35.9,37.4,36,31,36,24.4c2.3,0,4.6,0,7,0c0,3,0,5.9,0,8.8c0.1,3.8-0.2,7.7,0.3,11.4c1.4,8.9,9.5,10.1,15.1,7.3c2-1,3.1-2.4,3-4.9
		c-0.2-7-0.1-14-0.1-20.9C61.5,25.5,61.5,25,61.5,24.3z"/>
	<path fill="#FFFFFF" d="M159.5,24.4c2.4,0,4.7,0,7.1,0c0,0.6,0,1.1,0,1.6c0,5.3,0,10.6,0,15.9c0,2.8,0.7,5.5,2.4,7.8
		c3.9,5.2,12.1,3.9,14.9,0.9c0.7-0.8,1.2-1.6,1.1-2.8c0-7.2,0-14.5,0-21.7c0-0.5,0-1.1,0-1.7c2.4,0,4.7,0,7.1,0c0,0.6,0,1.1,0,1.6
		c0,11.3-0.2,22.7,0.1,34c0.2,8.2-5.1,12.6-11.1,13.7c-5.3,1-10.5,0.5-15.3-2.5c-0.3-0.2-0.5-0.4-0.8-0.6c-0.2-0.1-0.4-0.3-0.7-0.4
		c1.5-2,2.8-3.7,4.2-5.6c3.3,2.5,7,2.9,10.8,2.1c1.2-0.2,2.4-0.8,3.5-1.5c1.5-1,2.3-2.5,2.2-4.4c-0.1-1.1,0-2.2,0-3.2
		c-2,0.8-3.9,1.9-6,2.3c-8.9,1.9-17.4-3.9-18.9-12.9c-0.5-3.2-0.5-6.5-0.6-9.7C159.5,33,159.5,28.8,159.5,24.4z"/>
	<path fill="#FFFFFF" d="M84.3,59.9c-2.5,0-4.7,0-7.1,0c0-0.6,0-1.1,0-1.6c0-6.8,0-13.6,0-20.3c0-1.3-0.1-2.6-0.3-3.8
		c-0.2-1.2-0.8-2.3-2.3-2.5c0.4-2.3,0.7-4.6,1.1-6.8c3.5-0.5,6.7,1.2,8.1,3.9c1.6-1.2,3-2.6,4.8-3.5c8.5-4.1,19.1,1.2,21.6,10.8
		c0.4,1.4,0.7,2.9,0.7,4.4c0.1,6.5,0,12.9,0,19.5c-2.3,0-4.5,0-7,0c0-1.2,0-2.3,0-3.4c-0.1-5.5,0.3-11-0.3-16.5
		c-1-8.4-8.6-10.6-14.8-7.8c-3.1,1.4-4.4,4.2-4.4,7.5c-0.1,6.1,0,12.3,0,18.4C84.3,58.7,84.3,59.2,84.3,59.9z"/>
	<path fill="#FFFFFF" d="M126.8,59.9c-2.4,0-4.7,0-7.1,0c0-0.6,0-1.1,0-1.6c0-6.7,0-13.5,0-20.2c0-1.1-0.1-2.3-0.2-3.4
		c-0.2-1.5-0.7-2.8-2.4-3.2c0.4-2.3,0.7-4.6,1.1-6.8c3.5-0.5,6.7,1.1,8.1,3.9c1.6-1.2,3-2.6,4.8-3.4c8.6-4.1,19.2,1.3,21.6,10.9
		c0.4,1.5,0.7,3,0.7,4.5c0.1,6.4,0,12.8,0,19.2c-2.3,0-4.6,0-7,0c0-0.6,0-1.1,0-1.6c0-5.3,0-10.6,0-15.9c0-3.8-1.2-7.2-4.4-9.6
		c-3.8-2.9-12.9-2.3-14.6,3.9c-0.3,1.2-0.5,2.5-0.5,3.8C126.8,46.9,126.8,53.3,126.8,59.9z"/>
	<path fill="#FFFFFF" d="M18.3,60.4c-5,0-9.6-1.9-13-5.2C2,51.8,0.2,47.3,0.2,42.5v-0.1C0.2,32,8,24.3,18.4,24.3
		c5.6,0,9.6,1.5,13.1,4.9l-4.7,5c-2-1.9-4.6-3.5-8.5-3.5c-5.8,0-10.4,5-10.4,11.5v0.1c0,6.7,4.5,11.6,10.8,11.6
		c3.7,0,6.3-1.6,8.5-3.5l4.4,4.4C28.8,57.9,25,60.4,18.3,60.4z"/>
	<rect x="0.4" y="0" fill="#FF6600" width="38.6" height="8.4"/>
	<rect x="77" y="0" fill="#C0FFA3" width="38.6" height="8.4"/>
	<rect x="39" y="0" fill="#FFD33F" width="38" height="8.4"/>
	<rect x="153.6" y="0" fill="#FF2768" width="38.6" height="8.4"/>
	<rect x="115.6" y="0" fill="#74CEEE" width="38" height="8.4"/>
</g>
</svg>
